# xmcd
#
# Track frame offsets: 
#        150
#        32328
#        83411
#        97690
#        112401
#        144710
#        168631
#        183746
#
# Disc length: 2734 seconds
#
# Revision: 2
# Processed by: cddbd v1.5.2PL0 Copyright (c) Steve Scherf et al.
# Submitted via: ExactAudioCopy v0.99pb4
#
DISCID=630aac08
DTITLE=Аркадий Северный - Привет Киеву. Часть 2
DYEAR=2000
DGENRE=Chanson
TTITLE0=Без Подола Киев Невозможен (Часть 2)
TTITLE1=Одесское Попурри
TTITLE2=Гром Прогремел
TTITLE3=Рахиля
TTITLE4=Трамвай № 10 И "Семь Сорок"
TTITLE5=Налетчики
TTITLE6=На Верхотуре
TTITLE7=Пяточки Чешу
EXTD=
EXTT0=
EXTT1=
EXTT2=
EXTT3=
EXTT4=
EXTT5=
EXTT6=
EXTT7=
PLAYORDER=
